<?xml version="1.0" encoding="UTF-8"?><svg id="Layer_1" xmlns="http://www.w3.org/2000/svg" viewBox="0 0 70.5 70.5"><defs><style>.cls-1{fill:#050505;}.cls-2{fill:#fff;}.cls-3{fill:#f9ec31;}</style></defs><path class="cls-3" d="M35.25,68.77C16.77,68.77,1.73,53.73,1.73,35.25S16.77,1.73,35.25,1.73s33.52,15.04,33.52,33.52-15.04,33.52-33.52,33.52Z"/><path class="cls-1" d="M35.25,3.23c17.66,0,32.02,14.37,32.02,32.02s-14.37,32.02-32.02,32.02S3.23,52.91,3.23,35.25,17.59,3.23,35.25,3.23M35.25.23C15.94.23.23,15.94.23,35.25s15.71,35.02,35.02,35.02,35.02-15.71,35.02-35.02S54.56.23,35.25.23h0Z"/><path class="cls-1" d="M55.74,34.71c0,11.31-9.17,20.49-20.49,20.49s-20.49-9.17-20.49-20.49,9.17-19.49,20.49-19.49,20.49,8.17,20.49,19.49Z"/><path class="cls-2" d="M35.27,49.2c-2.12,0-4.19-.41-6.17-1.21-3.54-1.44-5.83-3.96-6.78-7.48l-.02-.07c.06,0,10.25,0,10.25,0,.02.06.05.13.08.19.44,1,1.47,1.67,2.58,1.67h0c.27,0,.53-.04.79-.12.82-.25,1.36-.85,1.48-1.64.12-.76-.22-1.45-.93-1.89-.28-.17-.7-.42-1.18-.57-1-.31-2.13-.67-3.27-.96-1.67-.42-3.41-1.03-5.3-1.86-1.99-.87-3.28-2.14-3.92-3.88-1.04-2.83-.38-5.44,1.94-7.54,1.75-1.59,3.9-2.61,6.57-3.12,1.22-.23,2.45-.35,3.66-.35,2.05,0,4.12.34,6.14,1,1.45.48,2.78,1.23,3.93,2.23,1.45,1.26,2.4,2.82,2.9,4.77l-10.43-.02c-.3,0-.32-.03-.39-.13-.34-.51-.88-.82-1.28-.98-.22-.09-.46-.14-.71-.14-.79,0-1.56.5-1.91,1.25-.46.98-.1,2.04.86,2.54.55.28,1.16.52,1.83.7.68.18,1.36.34,2.05.51.75.18,1.49.36,2.23.56,1.55.42,2.92.98,4.17,1.73,2.42,1.43,3.64,3.45,3.74,6.2.06,1.63-.51,3.1-1.75,4.48-1.19,1.34-2.69,2.3-4.57,2.95-2.29.79-4.51,1.18-6.61,1.18Z"/></svg>