<?xml version="1.0" encoding="UTF-8"?><svg id="Layer_3" xmlns="http://www.w3.org/2000/svg" viewBox="0 0 70.04 70.04"><defs><style>.cls-1{fill:#fff;}.cls-2{fill:#f9ec31;}</style></defs><path class="cls-2" d="M35.02,68.54C16.54,68.54,1.5,53.51,1.5,35.02S16.54,1.5,35.02,1.5s33.52,15.04,33.52,33.52-15.04,33.52-33.52,33.52Z"/><path class="cls-2" d="M35.02,3c17.66,0,32.02,14.37,32.02,32.02s-14.37,32.02-32.02,32.02S3,52.68,3,35.02,17.37,3,35.02,3M35.02,0C15.71,0,0,15.71,0,35.02s15.71,35.02,35.02,35.02,35.02-15.71,35.02-35.02S54.33,0,35.02,0h0Z"/><path class="cls-1" d="M35.02,15c-11.31,0-20.49,8.17-20.49,19.49s9.17,20.49,20.49,20.49,20.49-9.17,20.49-20.49-9.17-19.49-20.49-19.49ZM46.22,44.84c-1.19,1.34-2.69,2.3-4.57,2.95-2.29.79-4.51,1.18-6.61,1.18s-4.19-.41-6.17-1.21c-3.54-1.44-5.83-3.96-6.78-7.48l-.02-.07c.06,0,10.25,0,10.25,0,.02.06.05.13.08.19.44,1,1.47,1.67,2.58,1.67.27,0,.53-.04.79-.12.82-.25,1.36-.85,1.48-1.64.12-.76-.22-1.45-.93-1.89-.28-.17-.7-.42-1.18-.57-1-.31-2.13-.67-3.27-.96-1.67-.42-3.41-1.03-5.3-1.86-1.99-.87-3.28-2.14-3.92-3.88-1.04-2.83-.38-5.44,1.94-7.54,1.75-1.59,3.9-2.61,6.57-3.12,1.22-.23,2.45-.35,3.66-.35,2.05,0,4.12.34,6.14,1,1.45.48,2.78,1.23,3.93,2.23,1.45,1.26,2.4,2.82,2.9,4.77l-10.43-.02c-.3,0-.32-.03-.39-.13-.34-.51-.88-.82-1.28-.98-.22-.09-.46-.14-.71-.14-.79,0-1.56.5-1.91,1.25-.46.98-.1,2.04.86,2.54.55.28,1.16.52,1.83.7.68.18,1.36.34,2.05.51.75.18,1.49.36,2.23.56,1.55.42,2.92.98,4.17,1.73,2.42,1.43,3.64,3.45,3.74,6.2.06,1.63-.51,3.1-1.75,4.48Z"/></svg>