<?xml version="1.0" encoding="UTF-8"?><svg id="Layer_1" xmlns="http://www.w3.org/2000/svg" viewBox="0 0 165.93 70.26"><defs><style>.cls-1{fill:#fff;}.cls-2{fill:#f9ec31;}</style></defs><path class="cls-1" d="M124.95,30.45c-.35-1-1.12-1.84-2.1-2.29-.56-.26-1.18-.39-1.83-.39-.44,0-.87.06-1.3.18-1.34.37-2.44,1.29-2.96,2.45-.37.83-.41,1.7-.12,2.44l.26.65,8.33-2.24-.28-.8Z"/><path class="cls-1" d="M88.6,29.4h-.15c-1.27,0-2.52.53-3.43,1.46-.96.97-1.48,2.3-1.46,3.73.06,3.61,2.66,5.26,5.06,5.26,1.38,0,2.65-.52,3.58-1.46.99-.99,1.52-2.37,1.51-3.88-.02-2.82-2.32-5.12-5.12-5.12Z"/><path class="cls-1" d="M165.72,15.96c0-.52-.43-.93-.95-.91h-14.5s-13.56,0-13.56,0c-.5,0-.9.4-.92.89-.05,1.76.13,3.72-1.84,2.24-2.26-1.69-4.73-2.71-7.52-3.26-6.95-1.38-14.69.44-19.86,5.41-.37.36-.96.31-1.32-.07-3.2-3.45-7.64-4.87-12.48-5.05-.36-.01-.73-.04-1.1-.04l-71.13-.17C9.23,15.01.06,23.18.06,34.5s9.17,20.49,20.49,20.49c6.23,0,11.8-2.79,15.56-7.18.11.26.21.47.27.6.05.1.11.19.19.27,1.68,1.7,3.72,3.13,6.12,4.23,3.13,1.43,6.36,2.15,9.6,2.15s6.45-.72,9.55-2.15c1.01-.47,1.96-.99,2.84-1.57.61-.4,1.4.04,1.41.76.02,2.06.04,3.68.06,4.59l.13,4.8c.01.49.4.88.89.89h18.9c1.83-.08,3.27-1.58,3.27-3.41v-4.17c.36.04.72.08,1.08.1.41.02.81.03,1.21.03.37,0,.72-.03,1.08-.05,4.76-.26,8.96-2.22,12.28-5.76.37-.39.97-.4,1.35-.01,6.44,6.6,16.72,7.32,24.81,3.6.43-.2.85-.41,1.26-.63.6-.32,1.33.1,1.35.78v.26c.02.5.43.9.93.9h21.11c.49,0,.9-.39.92-.88,0,0,.14-15.28.21-15.46.15-.41.38-.67.76-.9.66-.38,7.17-.46,7.17-.46.49-.02.87-.42.88-.91V15.96ZM31.89,45.04c-1.22,1.36-2.74,2.35-4.66,3-2.31.79-4.55,1.19-6.67,1.19s-4.25-.41-6.24-1.22c-3.6-1.47-5.93-4.03-6.9-7.61l-.07-.25.24-.07h10.39s.12.32.12.32c.41.93,1.37,1.55,2.4,1.55.25,0,.49-.04.73-.11.74-.23,1.23-.77,1.34-1.48.11-.68-.2-1.29-.84-1.69-.27-.17-.67-.4-1.14-.55-1.03-.32-2.14-.67-3.26-.95-1.69-.43-3.43-1.04-5.33-1.87-2.05-.9-3.36-2.2-4.02-3.99-1.08-2.91-.39-5.6,1.99-7.76,1.78-1.62,3.96-2.65,6.67-3.17,1.23-.23,2.47-.35,3.69-.35,2.07,0,4.16.34,6.21,1.01,1.48.49,2.83,1.25,4,2.27,1.48,1.28,2.45,2.88,2.96,4.87l.06.25-10.69-.02c-.32,0-.43-.03-.56-.22-.31-.47-.82-.75-1.19-.91-.2-.08-.41-.13-.63-.13-.71,0-1.41.46-1.72,1.14-.41.88-.09,1.83.77,2.28.53.28,1.14.5,1.79.68.68.18,1.36.34,2.04.5.75.18,1.5.36,2.24.56,1.57.43,2.95,1,4.22,1.75,2.48,1.46,3.74,3.55,3.84,6.36.06,1.68-.53,3.2-1.8,4.62ZM67.5,35.33c-.07,5.76-2.79,9.92-8.09,12.35-2.34,1.07-4.73,1.62-7.13,1.62s-4.82-.55-7.2-1.63c-5.22-2.38-7.92-6.52-8.04-12.32-.07-3.35-.05-6.76-.04-10.07,0-1.41.01-2.77.01-4.13v-.2h11.71v5.3c0,3.01,0,6.03,0,9.04,0,.54.01,1.12.15,1.69.38,1.57,1.72,2.62,3.35,2.62.09,0,.18,0,.27,0,1.75-.13,3.1-1.41,3.27-3.12.04-.43.05-.86.05-1.29v-14.2s.19,0,.19,0c.86-.03,5.78-.05,8.79-.05,1.3,0,2.28,0,2.53.01h.19s0,4.07,0,4.07c0,3.38.02,6.87-.02,10.32ZM104.48,37.3c-.39,2.7-1.31,4.94-2.81,6.85-2.62,3.35-6,5.04-10.05,5.04-.29,0-.58,0-.88-.03-1.71-.1-3.4-.65-5.15-1.7-.11-.07-.87-.54-1.18-.74l-.45.44c-.48.47-.45,1.02-.43,1.31v.11c0,1.94,0,3.87,0,5.81v2.33s-.19,0-.19,0c-.91.03-6.18.06-9.29.06-.99,0-1.72,0-1.92,0h-.19s0-.19,0-.19c-.13-4.94-.13-30.47,0-35.48v-.2h9.01s.91,2.65,1.21,3.51c.44-.39,1.36-1.23,1.42-1.29,1.97-1.92,4.41-2.92,7.46-3.07.21-.01.42-.02.63-.02,5.22,0,9.87,3.28,11.86,8.34,1.1,2.81,1.41,5.73.95,8.92ZM136.68,36.22c-.61,5.24-3.25,8.86-8.06,11.07-1.07.49-2.15.89-3.21,1.17-1.45.39-2.91.58-4.35.58-1.03,0-2.06-.1-3.07-.3-4.87-.95-8.33-3.75-10.3-8.33-1-2.32-1.38-4.72-1.12-7.14.43-4.04,2.28-7.3,5.51-9.69,1.94-1.43,3.96-2.44,6-2.99,1.26-.34,2.56-.51,3.86-.51,1.51,0,3.07.23,4.61.68,3.78,1.1,6.64,3.6,8.5,7.41.67,1.38,1.12,2.79,1.36,4.31l.03.18-18.66,5.15c.09.26.23.7.24.72.64,1.94,2.73,2.81,4.51,2.81,1.6,0,3.55-.69,4.24-2.6l-.12-.16,10.07-2.67-.03.29ZM159.97,30.6v.19s-.19,0-.19,0c-1.36.06-2.95.19-4.48.65-.72.22-1.65.56-2.45,1.24-1.03.89-1.59,2.04-1.67,3.41-.04.72-.05,1.45-.05,2.17,0,4.46,0,9.78,0,9.8v.19h-11.67v-.2c-.11-4.27-.11-22.93,0-26.97v-.19h9.03s.9,2.52,1.19,3.33l1.04-.83c.12-.09.2-.15.27-.22,1.81-1.69,4.08-2.67,6.95-3,.57-.06,1.17-.11,1.8-.13h.21s0,.2,0,.2c0,1.77.03,9.78.02,10.35Z"/><path class="cls-2" d="M106.57,20.34c5.17-4.96,12.91-6.78,19.86-5.41,2.8.55,5.26,1.57,7.52,3.26,1.97,1.47,1.79-.49,1.84-2.24.01-.5.42-.89.92-.89h13.56C143.94,6,133.44.07,121.58.07s-22.49,6-28.81,15.15c4.84.18,9.28,1.6,12.48,5.05.35.38.94.43,1.32.07Z"/><path class="cls-2" d="M133.77,53.12v-.26c-.02-.69-.75-1.11-1.36-.78-.41.22-.83.43-1.26.63-8.09,3.72-18.37,3-24.81-3.6-.38-.39-.98-.38-1.35.01-3.32,3.54-7.53,5.5-12.28,5.76,6.32,9.19,16.9,15.23,28.88,15.23s23.21-6.43,29.45-16.1h-16.34c-.5,0-.91-.4-.92-.9Z"/></svg>