<?xml version="1.0" encoding="UTF-8"?><svg id="Layer_1" xmlns="http://www.w3.org/2000/svg" viewBox="0 0 397.18 70.83"><defs><style>.cls-1{fill:none;}.cls-2,.cls-3{fill:#fff;}.cls-3{font-family:GTWalsheimPro-Black, 'GT Walsheim Pro';font-size:22px;font-weight:800;letter-spacing:.05em;}</style></defs><text class="cls-3" transform="translate(17.21 42.58)"><tspan x="0" y="0">THE</tspan></text><path class="cls-2" d="M242.15,42.58v-15.4h6.36c2.38,0,4.3.73,5.77,2.2,1.47,1.47,2.21,3.3,2.21,5.5s-.74,4.03-2.21,5.5c-1.47,1.47-3.4,2.2-5.77,2.2h-6.36ZM246.73,38.84h1.39c1.11,0,2-.38,2.65-1.13.65-.75.98-1.7.98-2.83s-.33-2.07-.98-2.83c-.65-.76-1.54-1.13-2.65-1.13h-1.39v7.92Z"/><path class="cls-2" d="M259.31,42.58v-15.4h9.9v3.43h-5.32v2.68h5.32v3.28h-5.32v2.57h5.32v3.43h-9.9Z"/><path class="cls-2" d="M278.14,43.07c-2.01,0-3.59-.49-4.74-1.46-1.15-.98-1.73-2.33-1.73-4.06h4.58c0,.66.17,1.18.52,1.56s.83.57,1.44.57c1.03,0,1.54-.43,1.54-1.28,0-.35-.11-.63-.33-.85-.22-.21-.59-.42-1.12-.63l-3.06-1.12c-2.2-.82-3.3-2.27-3.3-4.36,0-1.44.54-2.59,1.62-3.45,1.08-.87,2.55-1.3,4.41-1.3s3.38.44,4.5,1.32,1.68,2.08,1.68,3.61h-4.58c0-.57-.14-1.02-.43-1.33-.29-.31-.69-.47-1.22-.47-.43,0-.76.1-1.01.31-.25.21-.37.49-.37.86,0,.31.12.58.37.8.25.23.69.46,1.32.69l2.82,1.08c2.19.85,3.28,2.33,3.28,4.44,0,1.56-.56,2.79-1.67,3.7-1.11.91-2.62,1.36-4.51,1.36Z"/><path class="cls-2" d="M287.21,42.58v-15.4h4.58v15.4h-4.58Z"/><path class="cls-2" d="M312.33,34.11v3.1h-1.21c-.43,1.88-1.33,3.32-2.72,4.33-1.39,1.01-3.19,1.52-5.4,1.52-2.48,0-4.49-.76-6.04-2.29s-2.32-3.48-2.32-5.85c.01-2.41.8-4.38,2.34-5.92,1.55-1.54,3.63-2.31,6.24-2.31,2.24,0,4.08.5,5.51,1.5,1.43,1,2.2,2.3,2.32,3.89h-4.97c-.12-.51-.43-.93-.94-1.24-.51-.32-1.14-.47-1.9-.47-1.22,0-2.16.4-2.83,1.2-.67.8-1,1.87-1,3.2s.34,2.37,1.03,3.18c.69.81,1.61,1.22,2.75,1.22,1.7,0,2.77-.65,3.21-1.96h-2.53v-3.1h8.45Z"/><path class="cls-2" d="M315.01,42.58v-15.4h4.62l4.58,8.76v-8.76h4.4v15.4h-4.62l-4.58-8.76v8.76h-4.4Z"/><path class="cls-2" d="M345,43.07c-2.52,0-4.58-.77-6.16-2.3-1.58-1.53-2.38-3.49-2.38-5.89s.79-4.35,2.38-5.88,3.64-2.3,6.16-2.3,4.34.56,5.81,1.69c1.47,1.13,2.29,2.7,2.49,4.71h-4.84c-.16-.72-.54-1.29-1.14-1.71-.6-.42-1.36-.63-2.29-.63-1.19,0-2.12.37-2.78,1.1s-1,1.74-1,3.01.33,2.28,1,3.01,1.6,1.1,2.78,1.1c.92,0,1.69-.21,2.29-.63.6-.42.98-.99,1.14-1.71h4.84c-.19,2.01-1.02,3.58-2.49,4.71-1.47,1.13-3.4,1.69-5.81,1.69Z"/><path class="cls-2" d="M369.55,40.69c-1.54,1.58-3.6,2.38-6.18,2.38s-4.64-.79-6.18-2.38-2.31-3.52-2.31-5.81.77-4.22,2.31-5.81,3.6-2.38,6.18-2.38,4.64.79,6.18,2.38,2.31,3.52,2.31,5.81-.77,4.22-2.31,5.81ZM363.37,38.98c1.19,0,2.11-.39,2.76-1.18.65-.78.97-1.76.96-2.92.01-1.16-.3-2.13-.96-2.92-.65-.78-1.57-1.18-2.76-1.18s-2.09.39-2.74,1.18c-.65.79-.98,1.76-.98,2.92s.33,2.13.98,2.92c.65.79,1.57,1.18,2.74,1.18Z"/><path class="cls-2" d="M376.35,42.87c-.72,0-1.32-.25-1.8-.74s-.73-1.07-.73-1.75.24-1.25.73-1.74c.48-.48,1.08-.73,1.8-.73s1.3.24,1.78.73c.48.48.73,1.06.73,1.74s-.24,1.26-.73,1.75-1.08.74-1.78.74Z"/><path class="cls-1" d="M20.28,20.99c-7.71,0-13.97,6.27-13.97,13.97s6.27,13.97,13.97,13.97h53.38c-3.46-3.67-5.6-8.6-5.6-14.04s2.26-10.45,5.92-13.91H20.28Z"/><path class="cls-1" d="M377.26,21.14h-143.52v14.67c0,.49-.39.89-.87.91,0,0-6.51.07-7.17.46-.38.22-.61.48-.76.9-.04.11-.11,6.21-.16,10.72h152.49c7.62,0,13.82-6.2,13.82-13.82s-6.2-13.82-13.82-13.82Z"/><path class="cls-2" d="M156.61,29.8h-.15c-1.27,0-2.52.53-3.43,1.46-.96.97-1.48,2.3-1.46,3.73.06,3.61,2.66,5.26,5.06,5.26,1.38,0,2.65-.52,3.58-1.46.99-.99,1.52-2.37,1.51-3.88-.02-2.82-2.32-5.12-5.12-5.12Z"/><path class="cls-2" d="M192.96,30.85c-.35-1-1.12-1.84-2.1-2.29-.56-.26-1.18-.39-1.83-.39-.44,0-.87.06-1.3.18-1.34.37-2.44,1.29-2.96,2.45-.37.83-.41,1.7-.12,2.44l.26.65,8.33-2.24-.28-.8Z"/><path class="cls-2" d="M377.26,15.46h-144.33s-.09-.03-.14-.02h-14.5s-.19,0-.19,0c-6.34-9.04-16.83-14.96-28.68-14.96s-22.47,5.99-28.8,15.12c-.31-.01-.62-.03-.93-.03l-71.13-.17c-.4,0-.79.03-1.19.05H20.28C9.51,15.46.78,24.19.78,34.96h0c0,10.77,8.73,19.5,19.5,19.5h62.2c1.92.6,3.96.92,6.08.92,6.23,0,11.8-2.79,15.56-7.18.11.26.21.47.27.6.05.1.11.19.19.27,1.68,1.7,3.72,3.13,6.12,4.23,3.13,1.43,6.36,2.15,9.6,2.15s6.45-.72,9.55-2.15c1.01-.47,1.96-.99,2.84-1.57.61-.4,1.4.04,1.41.76.02,2.06.04,3.68.06,4.59l.13,4.8c.01.49.4.88.89.89h18.9c1.83-.08,3.27-1.58,3.27-3.41v-4.17c.36.04.72.08,1.08.1.41.02.81.03,1.21.03.37,0,.96-.05.9-.04,6.32,9.2,16.91,15.24,28.88,15.24s23.18-6.41,29.42-16.07h158.42c10.77,0,19.5-8.73,19.5-19.5h0c0-10.77-8.73-19.5-19.5-19.5ZM73.67,48.93H20.28c-7.71,0-13.97-6.27-13.97-13.97s6.27-13.97,13.97-13.97h53.71c-3.66,3.45-5.92,8.29-5.92,13.91s2.14,10.37,5.6,14.04ZM99.9,45.44c-1.22,1.36-2.74,2.35-4.66,3-2.31.79-4.55,1.19-6.67,1.19s-4.25-.41-6.24-1.22c-3.6-1.47-5.93-4.03-6.9-7.61l-.07-.25.24-.07h10.39s.12.32.12.32c.41.93,1.37,1.55,2.4,1.55.25,0,.49-.04.73-.11.74-.23,1.23-.77,1.34-1.48.11-.68-.2-1.29-.84-1.69-.27-.17-.67-.4-1.14-.55-1.03-.32-2.14-.67-3.26-.95-1.69-.43-3.43-1.04-5.33-1.87-2.05-.9-3.36-2.2-4.02-3.99-1.08-2.91-.39-5.6,1.99-7.76,1.78-1.62,3.96-2.65,6.67-3.17,1.23-.23,2.47-.35,3.69-.35,2.07,0,4.16.34,6.21,1.01,1.48.49,2.83,1.25,4,2.27,1.48,1.28,2.45,2.88,2.96,4.87l.06.25-10.69-.02c-.32,0-.43-.03-.56-.22-.31-.47-.82-.75-1.19-.91-.2-.08-.41-.13-.63-.13-.71,0-1.41.46-1.72,1.14-.41.88-.09,1.83.77,2.28.53.28,1.14.5,1.79.68.68.18,1.36.34,2.04.5.75.18,1.5.36,2.24.56,1.57.43,2.95,1,4.22,1.75,2.48,1.46,3.74,3.55,3.84,6.36.06,1.68-.53,3.2-1.8,4.62ZM189.42,3.48c10.07,0,19.06,4.67,24.93,11.96h-9.63c-.5,0-.9.4-.92.9-.05,1.76.13,3.72-1.84,2.24-2.26-1.69-4.73-2.71-7.52-3.26-6.95-1.38-14.69.44-19.86,5.41-.37.36-.96.31-1.32-.07-2.46-2.65-5.65-4.09-9.19-4.7,0,0,0,0,0,0,5.86-7.58,15.04-12.48,25.34-12.48ZM186.02,38.95c.64,1.94,2.73,2.81,4.51,2.81,1.6,0,3.55-.69,4.24-2.6l-.12-.16,10.07-2.67-.03.29c-.61,5.24-3.25,8.86-8.06,11.07-1.07.49-2.15.89-3.21,1.17-1.45.39-2.91.58-4.35.58-1.03,0-2.06-.1-3.07-.3-4.87-.95-8.33-3.75-10.3-8.33-1-2.32-1.38-4.72-1.12-7.14.43-4.04,2.28-7.3,5.51-9.69,1.94-1.43,3.96-2.44,6-2.99,1.26-.34,2.56-.51,3.86-.51,1.51,0,3.07.23,4.61.68,3.78,1.1,6.64,3.6,8.5,7.41.67,1.38,1.12,2.79,1.36,4.31l.03.18-18.66,5.15c.09.26.23.7.24.72ZM135.51,35.72c-.07,5.76-2.79,9.92-8.09,12.35-2.34,1.07-4.73,1.62-7.13,1.62s-4.82-.55-7.2-1.63c-5.22-2.38-7.92-6.52-8.04-12.32-.07-3.35-.05-6.76-.04-10.07,0-1.41.01-2.77.01-4.13v-.2h11.71v5.3c0,3.01,0,6.03,0,9.04,0,.54.01,1.12.15,1.69.38,1.57,1.72,2.62,3.35,2.62.09,0,.18,0,.27,0,1.75-.13,3.1-1.41,3.27-3.12.04-.43.05-.86.05-1.29v-14.2s.19,0,.19,0c.86-.03,5.78-.05,8.79-.05,1.3,0,2.28,0,2.53.01h.19s0,4.07,0,4.07c0,3.38.02,6.87-.02,10.32ZM159.64,49.58c-.29,0-.58,0-.88-.03-1.71-.1-3.4-.65-5.15-1.7-.11-.07-.87-.54-1.18-.74l-.45.44c-.48.47-.45,1.02-.43,1.31v.11c0,1.94,0,3.87,0,5.81v2.33s-.19,0-.19,0c-.91.03-6.18.06-9.29.06-.99,0-1.72,0-1.92,0h-.19s0-.19,0-.19c-.13-4.94-.13-30.47,0-35.48v-.2h9.01s.91,2.65,1.21,3.51c.44-.39,1.36-1.23,1.42-1.29,1.97-1.92,4.41-2.92,7.46-3.07.21-.01.42-.02.63-.02,5.22,0,9.87,3.28,11.86,8.34,1.1,2.81,1.41,5.73.95,8.92-.39,2.7-1.31,4.94-2.81,6.85-2.62,3.35-6,5.04-10.05,5.04ZM189.42,67.53c-10.41,0-19.67-4.99-25.52-12.71,3.46-.8,6.55-2.58,9.11-5.31.37-.39.97-.4,1.35-.01,6.44,6.6,16.72,7.32,24.81,3.6.43-.2.85-.41,1.26-.63.6-.32,1.33.1,1.35.78v.26c.02.5.43.9.93.9h12.54c-5.83,7.95-15.23,13.12-25.83,13.12ZM220.85,33.09c-1.03.89-1.59,2.04-1.67,3.41-.04.72-.05,1.45-.05,2.17,0,4.46,0,9.78,0,9.8v.19h-11.67v-.2c-.11-4.27-.11-22.93,0-26.97v-.19h9.03s.9,2.52,1.19,3.33l1.04-.83c.12-.09.2-.15.27-.22,1.81-1.69,4.08-2.67,6.95-3,.57-.06,1.17-.11,1.8-.13h.21s0,.2,0,.2c0,1.77.03,9.78.02,10.35v.19s-.19,0-.19,0c-1.36.06-2.95.19-4.48.65-.72.22-1.65.56-2.45,1.24ZM377.26,48.79h-152.49c.05-4.5.12-10.61.16-10.72.15-.41.38-.67.76-.9.66-.38,7.17-.46,7.17-.46.49-.02.87-.42.88-.91v-14.67s143.52,0,143.52,0c7.62,0,13.82,6.2,13.82,13.82s-6.2,13.82-13.82,13.82Z"/></svg>