<?xml version="1.0" encoding="UTF-8"?><svg id="Layer_1" xmlns="http://www.w3.org/2000/svg" viewBox="0 0 397.18 70.83"><defs><style>.cls-1,.cls-2,.cls-3{fill:#050505;}.cls-2,.cls-3{font-family:GTWalsheimPro-Black, 'GT Walsheim Pro';font-size:22px;font-weight:800;}.cls-2,.cls-4{letter-spacing:.05em;}.cls-5{fill:#fff;}.cls-6{letter-spacing:-.01em;}.cls-7{fill:#f9ec31;}.cls-8{letter-spacing:.02em;}.cls-9{letter-spacing:.05em;}.cls-10{letter-spacing:.04em;}.cls-11{letter-spacing:.04em;}</style></defs><path class="cls-5" d="M20.28,51.7c-9.23,0-16.74-7.51-16.74-16.74s7.51-16.74,16.74-16.74h71.54v33.47H20.28Z"/><path class="cls-1" d="M89.06,20.99v27.95H20.28c-7.71,0-13.97-6.27-13.97-13.97s6.27-13.97,13.97-13.97h68.78M94.59,15.46H20.28C9.51,15.46.78,24.19.78,34.96h0c0,10.77,8.73,19.5,19.5,19.5h74.31V15.46h0Z"/><text class="cls-2" transform="translate(17.21 42.58)"><tspan x="0" y="0">THE</tspan></text><path class="cls-5" d="M220.48,51.62V18.3h156.78c9.19,0,16.66,7.48,16.66,16.66s-7.48,16.66-16.66,16.66h-156.78Z"/><path class="cls-1" d="M377.26,21.14c7.62,0,13.82,6.2,13.82,13.82s-6.2,13.82-13.82,13.82h-153.95v-27.65h153.95M377.26,15.46h-159.62v39h159.62c10.77,0,19.5-8.73,19.5-19.5h0c0-10.77-8.73-19.5-19.5-19.5h0Z"/><path class="cls-7" d="M189.6,67.75c-17.79,0-32.26-14.47-32.26-32.26S171.81,3.23,189.6,3.23s32.26,14.47,32.26,32.26-14.47,32.26-32.26,32.26Z"/><path class="cls-7" d="M189.6,5.99c16.29,0,29.5,13.21,29.5,29.5s-13.21,29.5-29.5,29.5-29.5-13.21-29.5-29.5,13.21-29.5,29.5-29.5M189.6.47c-19.31,0-35.02,15.71-35.02,35.02s15.71,35.02,35.02,35.02,35.02-15.71,35.02-35.02S208.91.47,189.6.47h0Z"/><path class="cls-1" d="M233.74,16.35c0-.52-.43-.93-.95-.91h-28.06c-.5,0-.9.4-.92.9-.05,1.76.13,3.72-1.84,2.24-2.26-1.69-4.73-2.71-7.52-3.26-6.95-1.38-14.69.44-19.86,5.41-.37.36-.96.31-1.32-.07-3.45-3.71-8.31-5.09-13.58-5.09l-71.13-.17c-11.31,0-20.49,8.17-20.49,19.49s9.17,20.49,20.49,20.49c6.23,0,11.8-2.79,15.56-7.18.11.26.21.47.27.6.05.1.11.19.19.27,1.68,1.7,3.72,3.13,6.12,4.23,3.13,1.43,6.36,2.15,9.6,2.15s6.45-.72,9.55-2.15c1.01-.47,1.96-.99,2.84-1.57.61-.4,1.4.04,1.41.76.02,2.06.04,3.68.06,4.59l.13,4.8c.01.49.4.88.89.89h18.9c1.83-.08,3.27-1.58,3.27-3.41v-4.17c.36.04.72.08,1.08.1.41.02.81.03,1.21.03,5.21,0,9.79-2.01,13.37-5.82.37-.39.97-.4,1.35-.01,6.44,6.6,16.72,7.32,24.81,3.6.43-.2.85-.41,1.26-.63.6-.32,1.33.1,1.35.78v.26c.02.5.43.9.93.9h21.11c.49,0,.9-.39.92-.88,0,0,.14-15.28.21-15.46.15-.41.38-.67.76-.9.66-.38,7.17-.46,7.17-.46.49-.02.87-.42.88-.91v-19.45Z"/><path class="cls-5" d="M140.16,56.97c-.13-4.97-.13-30.47,0-35.47h8.67s1.26,3.66,1.26,3.66c0,0,1.57-1.42,1.65-1.5,1.94-1.88,4.33-2.87,7.33-3.01.21-.01.41-.02.62-.02,5.13,0,9.72,3.23,11.67,8.22,1.09,2.78,1.39,5.66.94,8.82-.39,2.66-1.29,4.87-2.77,6.75-2.58,3.29-5.91,4.96-9.89,4.96-.29,0-.58,0-.87-.02-1.68-.1-3.33-.64-5.06-1.68-.14-.08-1.31-.82-1.31-.82l-.56.55c-.55.53-.51,1.17-.49,1.47v.11c0,1.94,0,3.87,0,5.8v2.13c-1.23.05-10.4.07-11.19.05ZM156.47,29.6c-1.32,0-2.62.55-3.57,1.52-1,1.01-1.54,2.39-1.51,3.88.06,3.74,2.76,5.45,5.25,5.46h0c1.44,0,2.75-.54,3.72-1.52,1.02-1.03,1.58-2.46,1.57-4.02-.02-2.93-2.41-5.31-5.32-5.31h-.14Z"/><path class="cls-5" d="M120.3,49.49c-2.37,0-4.77-.54-7.11-1.61-5.14-2.34-7.81-6.43-7.92-12.14-.07-3.37-.05-6.8-.04-10.12,0-1.36.01-2.72.01-4.07h11.31v5.1c0,3.01,0,6.03,0,9.04,0,.55.01,1.14.16,1.74.4,1.66,1.82,2.77,3.54,2.77.09,0,.19,0,.28-.01,1.85-.13,3.27-1.49,3.45-3.3.04-.44.05-.88.05-1.31,0,0,0-14,0-14,1.2-.04,10.46-.06,11.3-.04,0,1.29,0,2.59,0,3.88,0,3.38.02,6.88-.02,10.31-.07,5.68-2.75,9.77-7.97,12.17-2.31,1.06-4.68,1.6-7.05,1.6Z"/><path class="cls-5" d="M88.57,49.43c-2.12,0-4.19-.41-6.17-1.21-3.54-1.44-5.83-3.96-6.78-7.48l-.02-.07c.06,0,10.25,0,10.25,0,.02.06.05.13.08.19.44,1,1.47,1.67,2.58,1.67h0c.27,0,.53-.04.79-.12.82-.25,1.36-.85,1.48-1.64.12-.76-.22-1.45-.93-1.89-.28-.17-.7-.42-1.18-.57-1-.31-2.13-.67-3.27-.96-1.67-.42-3.41-1.03-5.3-1.86-1.99-.87-3.28-2.14-3.92-3.88-1.04-2.83-.38-5.44,1.94-7.54,1.75-1.59,3.9-2.61,6.57-3.12,1.22-.23,2.45-.35,3.66-.35,2.05,0,4.12.34,6.14,1,1.45.48,2.78,1.23,3.93,2.23,1.45,1.26,2.4,2.82,2.9,4.77l-10.43-.02c-.3,0-.32-.03-.39-.13-.34-.51-.88-.82-1.28-.98-.22-.09-.46-.14-.71-.14-.79,0-1.56.5-1.91,1.25-.46.98-.1,2.04.86,2.54.55.28,1.16.52,1.83.7.68.18,1.36.34,2.05.51.75.18,1.49.36,2.23.56,1.55.42,2.92.98,4.17,1.73,2.42,1.43,3.64,3.45,3.74,6.2.06,1.63-.51,3.1-1.75,4.48-1.19,1.34-2.69,2.3-4.57,2.95-2.29.79-4.51,1.18-6.61,1.18Z"/><path class="cls-5" d="M207.65,48.46c-.1-4.08-.11-22.77.01-26.96h8.69s1.23,3.46,1.23,3.46l1.26-1c.12-.09.21-.16.29-.24,1.78-1.66,4.02-2.62,6.84-2.94.56-.06,1.16-.11,1.79-.12,0,1.85.03,9.79.02,10.35-1.46.07-3.01.2-4.53.66-.74.22-1.69.57-2.52,1.28-1.07.92-1.66,2.12-1.74,3.55-.04.73-.05,1.45-.05,2.18,0,0,0,9.77,0,9.79h-11.28Z"/><text class="cls-3" transform="translate(240.79 42.58)"><tspan class="cls-4" x="0" y="0">D</tspan><tspan class="cls-10" x="17.16" y="0">E</tspan><tspan class="cls-9" x="30.51" y="0">SIGN</tspan><tspan class="cls-6" x="90.29" y="0"> </tspan><tspan class="cls-11" x="95.28" y="0">C</tspan><tspan class="cls-8" x="113.69" y="0">O</tspan><tspan class="cls-4" x="131.87" y="0">.</tspan></text><path class="cls-5" d="M193.37,48.66c-2.46.66-4.92.76-7.33.28-4.8-.94-8.22-3.7-10.16-8.21-.99-2.29-1.36-4.66-1.11-7.04.42-3.98,2.25-7.2,5.43-9.55,1.92-1.42,3.92-2.41,5.94-2.95,2.69-.72,5.51-.66,8.37.17,3.73,1.09,6.55,3.54,8.38,7.3.66,1.36,1.1,2.76,1.34,4.26l-18.69,5.15.31.93c1.24,3.76,7.84,4.03,9.16.13,0-.02,0-.03,0-.03,2.21-.58,9.5-2.52,9.5-2.52-.61,5.16-3.21,8.74-7.94,10.91-1.06.49-2.13.88-3.18,1.16ZM187.68,28.15c-1.33.37-2.51,1.28-3.08,2.56-.39.88-.43,1.8-.12,2.59l.32.82,8.71-2.34-.35-1c-.37-1.07-1.18-1.93-2.21-2.41-1.03-.47-2.2-.52-3.27-.23Z"/></svg>