<?xml version="1.0" encoding="UTF-8"?><svg id="Layer_1" xmlns="http://www.w3.org/2000/svg" viewBox="0 0 329.92 79.04"><defs><style>.cls-1{font-family:GTWalsheimPro-Bold, 'GT Walsheim Pro';font-size:20px;font-weight:700;}.cls-1,.cls-2{fill:#050505;}.cls-3{fill:#fff;}.cls-4{letter-spacing:-.02em;}.cls-5{fill:#f9ec31;}</style></defs><text class="cls-1" transform="translate(37.08 18.92)"><tspan x="0" y="0">t</tspan><tspan class="cls-4" x="7.88" y="0">h</tspan><tspan x="19.62" y="0">e</tspan></text><path class="cls-5" d="M122.34,75.96c-17.79,0-32.26-14.47-32.26-32.26s14.47-32.26,32.26-32.26,32.26,14.47,32.26,32.26-14.47,32.26-32.26,32.26Z"/><path class="cls-5" d="M122.34,14.21c16.29,0,29.5,13.21,29.5,29.5s-13.21,29.5-29.5,29.5-29.5-13.21-29.5-29.5,13.21-29.5,29.5-29.5M122.34,8.68c-19.31,0-35.02,15.71-35.02,35.02s15.71,35.02,35.02,35.02,35.02-15.71,35.02-35.02-15.71-35.02-35.02-35.02h0Z"/><path class="cls-2" d="M328.21,36.24c-.16-.41-.32-.81-.51-1.21-.34-.74-.73-1.46-1.16-2.15-.46-.73-.94-1.45-1.49-2.11-2.78-3.37-6.67-5.79-11.12-6.7-1.27-.26-2.58-.4-3.93-.4h-144.33s-.09-.03-.14-.02h-28.06c-.5,0-.9.4-.92.9-.05,1.76.13,3.72-1.84,2.24-2.26-1.69-4.73-2.71-7.52-3.26-6.95-1.38-14.69.44-19.86,5.41-.37.36-.96.31-1.32-.07-3.45-3.71-8.31-5.09-13.58-5.09l-71.13-.17C9.98,23.62.81,31.79.81,43.11s9.17,20.49,20.49,20.49c6.23,0,11.8-2.79,15.56-7.18.11.26.21.47.27.6.05.1.11.19.19.27,1.68,1.7,3.72,3.13,6.12,4.23,3.13,1.43,6.36,2.15,9.6,2.15s6.45-.72,9.55-2.15c1.01-.47,1.96-.99,2.84-1.57.61-.4,1.4.04,1.41.76.02,2.06.04,3.68.06,4.59l.13,4.8c.01.49.4.88.89.89h18.9c1.83-.08,3.27-1.58,3.27-3.41v-4.17c.36.04.72.08,1.08.1.41.02.81.03,1.21.03,5.21,0,9.79-2.01,13.37-5.82.37-.39.97-.4,1.35-.01,6.44,6.6,16.72,7.32,24.81,3.6.43-.2.85-.41,1.26-.63.6-.32,1.33.1,1.35.78v.26c.02.5.43.9.93.9h14.94v.05h159.62c1.35,0,2.66-.14,3.93-.4,5.08-1.04,9.44-4.05,12.24-8.2,2.1-3.11,3.33-6.86,3.33-10.9,0-2.45-.47-4.78-1.29-6.93Z"/><path class="cls-3" d="M72.9,65.18c-.13-4.97-.13-30.47,0-35.47h8.67s1.26,3.66,1.26,3.66c0,0,1.57-1.42,1.65-1.5,1.94-1.88,4.33-2.87,7.33-3.01.21-.01.41-.02.62-.02,5.13,0,9.72,3.23,11.67,8.22,1.09,2.78,1.39,5.66.94,8.82-.39,2.66-1.29,4.87-2.77,6.75-2.58,3.29-5.91,4.96-9.89,4.96-.29,0-.58,0-.87-.02-1.68-.1-3.33-.64-5.06-1.68-.14-.08-1.31-.82-1.31-.82l-.56.55c-.55.53-.51,1.17-.49,1.47v.11c0,1.94,0,3.87,0,5.8v2.13c-1.23.05-10.4.07-11.19.05ZM89.21,37.81c-1.32,0-2.62.55-3.57,1.52-1,1.01-1.54,2.39-1.51,3.88.06,3.74,2.76,5.45,5.25,5.46h0c1.44,0,2.75-.54,3.72-1.52,1.02-1.03,1.58-2.46,1.57-4.02-.02-2.93-2.41-5.31-5.32-5.31h-.14Z"/><path class="cls-3" d="M53.04,57.71c-2.37,0-4.77-.54-7.11-1.61-5.14-2.34-7.81-6.43-7.92-12.14-.07-3.37-.05-6.8-.04-10.12,0-1.36.01-2.72.01-4.07h11.31v5.1c0,3.01,0,6.03,0,9.04,0,.55.01,1.14.16,1.74.4,1.66,1.82,2.77,3.54,2.77.09,0,.19,0,.28-.01,1.85-.13,3.27-1.49,3.45-3.3.04-.44.05-.88.05-1.31,0,0,0-14,0-14,1.2-.04,10.46-.06,11.3-.04,0,1.29,0,2.59,0,3.88,0,3.38.02,6.88-.02,10.31-.07,5.68-2.75,9.77-7.97,12.17-2.31,1.06-4.68,1.6-7.05,1.6Z"/><path class="cls-3" d="M21.31,57.65c-2.12,0-4.19-.41-6.17-1.21-3.54-1.44-5.83-3.96-6.78-7.48l-.02-.07c.06,0,10.25,0,10.25,0,.02.06.05.13.08.19.44,1,1.47,1.67,2.58,1.67h0c.27,0,.53-.04.79-.12.82-.25,1.36-.85,1.48-1.64.12-.76-.22-1.45-.93-1.89-.28-.17-.7-.42-1.18-.57-1-.31-2.13-.67-3.27-.96-1.67-.42-3.41-1.03-5.3-1.86-1.99-.87-3.28-2.14-3.92-3.88-1.04-2.83-.38-5.44,1.94-7.54,1.75-1.59,3.9-2.61,6.57-3.12,1.22-.23,2.45-.35,3.66-.35,2.05,0,4.12.34,6.14,1,1.45.48,2.78,1.23,3.93,2.23,1.45,1.26,2.4,2.82,2.9,4.77l-10.43-.02c-.3,0-.32-.03-.39-.13-.34-.51-.88-.82-1.28-.98-.22-.09-.46-.14-.71-.14-.79,0-1.56.5-1.91,1.25-.46.98-.1,2.04.86,2.54.55.28,1.16.52,1.83.7.68.18,1.36.34,2.05.51.75.18,1.49.36,2.23.56,1.55.42,2.92.98,4.17,1.73,2.42,1.43,3.64,3.45,3.74,6.2.06,1.63-.51,3.1-1.75,4.48-1.19,1.34-2.69,2.3-4.57,2.95-2.29.79-4.51,1.18-6.61,1.18Z"/><path class="cls-3" d="M140.39,56.68c-.1-4.08-.11-22.77.01-26.96h8.69s1.23,3.46,1.23,3.46l1.26-1c.12-.09.21-.16.29-.24,1.78-1.66,4.02-2.62,6.84-2.94.56-.06,1.16-.11,1.79-.12,0,1.85.03,9.79.02,10.35-1.46.07-3.01.2-4.53.66-.74.22-1.69.57-2.52,1.28-1.07.92-1.66,2.12-1.74,3.55-.04.73-.05,1.45-.05,2.18,0,0,0,9.77,0,9.79h-11.28Z"/><path class="cls-3" d="M174.89,50.8v-15.4h6.36c2.38,0,4.3.73,5.77,2.2,1.47,1.47,2.21,3.3,2.21,5.5s-.74,4.03-2.21,5.5c-1.47,1.47-3.4,2.2-5.77,2.2h-6.36ZM179.47,47.06h1.39c1.11,0,2-.38,2.65-1.13.65-.76.98-1.7.98-2.83s-.33-2.07-.98-2.83c-.65-.76-1.54-1.13-2.65-1.13h-1.39v7.92Z"/><path class="cls-3" d="M192.05,50.8v-15.4h9.9v3.43h-5.32v2.68h5.32v3.28h-5.32v2.57h5.32v3.43h-9.9Z"/><path class="cls-3" d="M210.88,51.28c-2.01,0-3.59-.49-4.74-1.46-1.15-.98-1.73-2.33-1.73-4.06h4.58c0,.66.17,1.18.52,1.56.34.38.83.57,1.44.57,1.03,0,1.54-.43,1.54-1.28,0-.35-.11-.63-.33-.85-.22-.21-.59-.42-1.12-.63l-3.06-1.12c-2.2-.82-3.3-2.27-3.3-4.36,0-1.44.54-2.59,1.62-3.45,1.08-.87,2.55-1.3,4.41-1.3s3.38.44,4.5,1.32,1.68,2.08,1.68,3.61h-4.58c0-.57-.14-1.02-.43-1.33-.29-.31-.69-.47-1.22-.47-.43,0-.76.1-1.01.31-.25.21-.37.49-.37.86,0,.31.12.58.37.8.25.23.69.46,1.32.69l2.82,1.08c2.19.85,3.28,2.33,3.28,4.44,0,1.56-.56,2.79-1.67,3.7-1.11.91-2.62,1.36-4.51,1.36Z"/><path class="cls-3" d="M219.95,50.8v-15.4h4.58v15.4h-4.58Z"/><path class="cls-3" d="M245.07,42.33v3.1h-1.21c-.43,1.88-1.33,3.32-2.72,4.33-1.39,1.01-3.19,1.52-5.4,1.52-2.48,0-4.49-.76-6.04-2.29-1.55-1.52-2.32-3.48-2.32-5.85.01-2.41.8-4.38,2.34-5.92,1.55-1.54,3.63-2.31,6.24-2.31,2.24,0,4.08.5,5.51,1.5,1.43,1,2.2,2.3,2.32,3.89h-4.97c-.12-.51-.43-.93-.94-1.24-.51-.32-1.14-.47-1.9-.47-1.22,0-2.16.4-2.83,1.2-.67.8-1,1.87-1,3.2s.34,2.37,1.03,3.18c.69.81,1.61,1.22,2.75,1.22,1.7,0,2.77-.65,3.21-1.96h-2.53v-3.1h8.45Z"/><path class="cls-3" d="M247.75,50.8v-15.4h4.62l4.58,8.76v-8.76h4.4v15.4h-4.62l-4.58-8.76v8.76h-4.4Z"/><path class="cls-3" d="M277.74,51.28c-2.52,0-4.58-.77-6.16-2.3s-2.38-3.49-2.38-5.89.79-4.35,2.38-5.88,3.64-2.3,6.16-2.3,4.34.56,5.81,1.69c1.47,1.13,2.29,2.7,2.49,4.71h-4.84c-.16-.72-.54-1.29-1.14-1.71-.6-.42-1.36-.63-2.29-.63-1.19,0-2.12.37-2.78,1.1s-1,1.74-1,3.01.33,2.28,1,3.01,1.6,1.1,2.78,1.1c.92,0,1.69-.21,2.29-.63.6-.42.98-.99,1.14-1.71h4.84c-.19,2.01-1.02,3.58-2.49,4.71-1.47,1.13-3.4,1.69-5.81,1.69Z"/><path class="cls-3" d="M302.29,48.91c-1.54,1.58-3.6,2.38-6.18,2.38s-4.64-.79-6.18-2.38-2.31-3.52-2.31-5.81.77-4.22,2.31-5.81,3.6-2.38,6.18-2.38,4.64.79,6.18,2.38,2.31,3.52,2.31,5.81-.77,4.22-2.31,5.81ZM296.11,47.19c1.19,0,2.11-.39,2.76-1.18.65-.78.97-1.76.96-2.92.01-1.16-.3-2.13-.96-2.92-.65-.78-1.57-1.18-2.76-1.18s-2.09.39-2.74,1.18c-.65.79-.98,1.76-.98,2.92s.33,2.13.98,2.92c.65.79,1.57,1.18,2.74,1.18Z"/><path class="cls-3" d="M309.09,51.08c-.72,0-1.32-.25-1.8-.74s-.73-1.07-.73-1.75.24-1.25.73-1.74,1.08-.73,1.8-.73,1.3.24,1.78.73.73,1.06.73,1.74-.24,1.26-.73,1.75-1.08.74-1.78.74Z"/><path class="cls-3" d="M126.11,56.88c-2.46.66-4.92.76-7.33.28-4.8-.94-8.22-3.7-10.16-8.21-.99-2.29-1.36-4.66-1.11-7.04.42-3.98,2.25-7.2,5.43-9.55,1.92-1.42,3.92-2.41,5.94-2.95,2.69-.72,5.51-.66,8.37.17,3.73,1.09,6.55,3.54,8.38,7.3.66,1.36,1.1,2.76,1.34,4.26l-18.69,5.15s.31.93.31.93c1.24,3.76,7.84,4.03,9.16.13,0-.02,0-.03,0-.03,2.21-.58,9.5-2.52,9.5-2.52-.61,5.16-3.21,8.74-7.94,10.91-1.06.49-2.13.88-3.18,1.16ZM120.42,36.36c-1.33.37-2.51,1.28-3.08,2.56-.39.88-.43,1.8-.12,2.59l.32.82,8.71-2.34-.35-1c-.37-1.07-1.18-1.93-2.21-2.41-1.03-.47-2.2-.52-3.27-.23Z"/></svg>