<?xml version="1.0" encoding="UTF-8"?><svg id="Layer_1" xmlns="http://www.w3.org/2000/svg" viewBox="0 0 165.93 70.26"><defs><style>.cls-1{fill:#050505;}</style></defs><path class="cls-1" d="M165.72,15.99c0-.52-.43-.93-.95-.91h-14.48C143.96,6.01,133.46.05,121.58.05s-22.51,6.03-28.83,15.2c-.36-.01-.72-.04-1.08-.04l-71.13-.17C9.23,15.05.06,23.22.06,34.54s9.17,20.49,20.49,20.49c6.23,0,11.8-2.79,15.56-7.18.11.26.21.47.27.6.05.1.11.19.19.27,1.68,1.7,3.72,3.13,6.12,4.23,3.13,1.43,6.36,2.15,9.6,2.15s6.45-.72,9.55-2.15c1.01-.47,1.96-.99,2.84-1.57.61-.4,1.4.04,1.41.76.02,2.06.04,3.68.06,4.59l.13,4.8c.01.49.4.88.89.89h18.9c1.83-.08,3.27-1.58,3.27-3.41v-4.17c.36.04.72.08,1.08.1.41.02.81.03,1.21.03s.76-.03,1.14-.06c6.32,9.16,16.87,15.18,28.82,15.18s23.15-6.41,29.39-16.05h4.82c.49,0,.9-.39.92-.88,0,0,.14-15.28.21-15.46.15-.41.38-.67.76-.9.66-.38,7.17-.46,7.17-.46.49-.02.87-.42.88-.91V15.99ZM31.74,44.89c-1.19,1.34-2.69,2.3-4.57,2.95-2.29.79-4.51,1.18-6.61,1.18s-4.19-.41-6.17-1.21c-3.54-1.44-5.83-3.96-6.78-7.48l-.02-.07c.06,0,10.25,0,10.25,0,.02.06.05.13.08.19.44,1,1.47,1.67,2.58,1.67.27,0,.53-.04.79-.12.82-.25,1.36-.85,1.48-1.64.12-.76-.22-1.45-.93-1.89-.28-.17-.7-.42-1.18-.57-1-.31-2.13-.67-3.27-.96-1.67-.42-3.41-1.03-5.3-1.86-1.99-.87-3.28-2.14-3.92-3.88-1.04-2.83-.38-5.44,1.94-7.54,1.75-1.59,3.9-2.61,6.57-3.12,1.22-.23,2.45-.35,3.66-.35,2.05,0,4.12.34,6.14,1,1.45.48,2.78,1.23,3.93,2.23,1.45,1.26,2.4,2.82,2.9,4.77l-10.43-.02c-.3,0-.32-.03-.39-.13-.34-.51-.88-.82-1.28-.98-.22-.09-.46-.14-.71-.14-.79,0-1.56.5-1.91,1.25-.46.98-.1,2.04.86,2.54.55.28,1.16.52,1.83.7.68.18,1.36.34,2.05.51.75.18,1.49.36,2.23.56,1.55.42,2.92.98,4.17,1.73,2.42,1.43,3.64,3.45,3.74,6.2.06,1.63-.51,3.1-1.75,4.48ZM121.58,3.05c9.75,0,18.94,4.51,24.98,12.03h-9.85c-.5,0-.9.4-.92.9-.05,1.76.13,3.72-1.84,2.24-2.26-1.69-4.73-2.71-7.52-3.26-6.95-1.38-14.69.44-19.86,5.41-.37.36-.96.31-1.32-.07-2.43-2.61-5.57-4.05-9.06-4.68,6.02-7.83,15.41-12.56,25.39-12.56ZM117.82,38.65c1.24,3.76,7.84,4.03,9.16.13,0-.02,0-.03,0-.03,2.21-.58,9.5-2.52,9.5-2.52-.61,5.16-3.21,8.74-7.94,10.91-1.06.49-2.13.88-3.18,1.16-2.46.66-4.92.76-7.33.28-4.8-.94-8.22-3.7-10.16-8.21-.99-2.29-1.36-4.66-1.11-7.04.42-3.98,2.25-7.2,5.43-9.55,1.92-1.42,3.92-2.41,5.94-2.95,2.69-.72,5.51-.66,8.37.17,3.73,1.09,6.55,3.54,8.38,7.3.66,1.36,1.1,2.76,1.34,4.26l-18.69,5.15s.31.93.31.93ZM67.3,35.31c-.07,5.68-2.75,9.77-7.97,12.17-2.31,1.06-4.68,1.6-7.05,1.6s-4.77-.54-7.11-1.61c-5.14-2.34-7.81-6.43-7.92-12.14-.07-3.37-.05-6.8-.04-10.12,0-1.36.01-2.72.01-4.07h11.31v5.1c0,3.01,0,6.03,0,9.04,0,.55.01,1.14.16,1.74.4,1.66,1.82,2.77,3.54,2.77.09,0,.19,0,.28-.01,1.85-.13,3.27-1.49,3.45-3.3.04-.44.05-.88.05-1.31,0,0,0-14,0-14,1.2-.04,10.46-.06,11.3-.04,0,1.29,0,2.59,0,3.88,0,3.38.02,6.88-.02,10.31ZM91.62,48.97c-.29,0-.58,0-.87-.02-1.68-.1-3.33-.64-5.06-1.68-.14-.08-1.31-.82-1.31-.82l-.56.55c-.55.53-.51,1.17-.49,1.47v.11c0,1.94,0,3.87,0,5.8v2.13c-1.23.05-10.4.07-11.19.05-.13-4.97-.13-30.47,0-35.47h8.67s1.26,3.66,1.26,3.66c0,0,1.57-1.42,1.65-1.5,1.94-1.88,4.33-2.87,7.33-3.01.21-.01.41-.02.62-.02,5.13,0,9.72,3.23,11.67,8.22,1.09,2.78,1.39,5.66.94,8.82-.39,2.66-1.29,4.87-2.77,6.75-2.58,3.29-5.91,4.96-9.89,4.96ZM121.58,67.1c-10.05,0-19.46-4.77-25.48-12.68,3.37-.83,6.38-2.59,8.89-5.26.37-.39.97-.4,1.35-.01,6.44,6.6,16.72,7.32,24.81,3.6.43-.2.85-.41,1.26-.63.6-.32,1.33.1,1.35.78v.26c.02.5.43.9.93.9h12.67c-5.98,8.16-15.44,13.05-25.77,13.05ZM159.77,30.58c-1.46.07-3.01.2-4.53.66-.74.22-1.69.57-2.52,1.28-1.07.92-1.66,2.12-1.74,3.55-.04.73-.05,1.45-.05,2.18,0,0,0,9.77,0,9.79h-11.28c-.1-4.08-.11-22.77.01-26.96h8.69s1.23,3.46,1.23,3.46l1.26-1c.12-.09.21-.16.29-.24,1.78-1.66,4.02-2.62,6.84-2.94.56-.06,1.16-.11,1.79-.12,0,1.85.03,9.79.02,10.35Z"/><path class="cls-1" d="M88.6,29.19h-.14c-1.32,0-2.62.55-3.57,1.51-1,1.01-1.54,2.39-1.51,3.88.06,3.74,2.76,5.45,5.25,5.46,1.44,0,2.75-.54,3.72-1.52,1.02-1.03,1.58-2.46,1.57-4.02-.02-2.93-2.41-5.31-5.32-5.31Z"/><path class="cls-1" d="M122.93,28.01c-1.03-.47-2.2-.52-3.27-.23-1.33.37-2.51,1.28-3.08,2.56-.39.88-.43,1.8-.12,2.59l.32.82,8.71-2.34s-.35-1-.35-1c-.37-1.07-1.18-1.93-2.21-2.41Z"/></svg>